<svg width="1279" height="420" viewBox="0 0 1279 420" fill="none" xmlns="http://www.w3.org/2000/svg">
<rect width="1279" height="420" rx="26" fill="#1F4D37"/>
<mask id="mask0_1363_32368" style="mask-type:alpha" maskUnits="userSpaceOnUse" x="0" y="0" width="1279" height="420">
<rect width="1279" height="420" rx="26" fill="#D9D9D9"/>
</mask>
<g mask="url(#mask0_1363_32368)">
<g clip-path="url(#clip0_1363_32368)">
<path fill-rule="evenodd" clip-rule="evenodd" d="M825.11 -1051.74C780.295 -1042.03 790.959 -960.348 748.257 -903.742C697.026 -835.914 645.964 -779.655 617.628 -695.897C600.803 -646.061 596.282 -588.424 572.031 -541.526C540.927 -481.725 478.04 -431.37 443.211 -361.37C418.941 -312.627 412.761 -256.838 382.212 -210.749C309.399 -100.789 192.441 -42.1678 103.516 51.2088C50.1101 107.398 19.3265 173.948 -11.4459 243.689C-12.1107 243.622 -12.2967 245.45 -12.3475 245.948C-29.5725 296.416 -43.4933 349.066 -77.8588 391.409C-131.031 456.856 -271.015 547.052 -256.778 638.165C-253.193 660.693 -234.83 663.401 -214.731 662.256C-162.548 659.338 -132.537 597.075 -99.3379 566.2C-54.8345 524.888 -13.2574 474.38 13.5002 419.342C78.8757 285.118 72.415 205.04 202.014 103.04C237.252 75.2268 355.488 -78.4692 388.198 -28.6301C426.71 30.1949 195.128 202.078 158.486 243.685C69.4305 344.94 68.9526 496.514 1.91603 610.756C-25.7088 657.814 -68.2236 702.685 -114.766 731.028C-142.338 747.868 -173.792 759.947 -197.436 782.728C-248.469 832.106 -265.399 894.525 -297.402 954.906C-318.781 995.044 -364.493 1033.38 -356.8 1083.19C-348.892 1134.2 -289.454 1088.03 -276.272 1069.05C-215.164 980.065 -195.782 893.548 -101.294 823.07C-73.6652 802.374 -38.2181 759.302 -4.54843 773.306C24.2875 785.307 -26.126 889.654 -29.1813 926.283C-30.4186 940.094 -29.9152 956.6 -29.8843 957.947C-28.6234 978.56 -23.9202 998.348 -16.6395 1017.56C-15.8452 1019.65 -16.1099 1018.96 -15.0509 1021.75C6.38829 1081.69 17.721 1132.04 14.884 1196.23C13.7278 1220.8 1.60747 1318.46 -1.51792 1347.53C-4.57567 1375.93 -5.27286 1404.24 -2.44611 1432.56C2.97935 1486.51 17.6161 1539.05 44.8785 1586.32C64.5838 1620.39 89.2778 1653.29 102.428 1690.73C101.729 1691 103.839 1691.72 104.27 1692.43C109.261 1699.49 111.574 1708.12 114.12 1716.1C120.386 1735.38 125.771 1755.07 130.658 1774.71C145.283 1833.96 153.054 1896.2 146.184 1957.12C134.57 2059.71 64.3364 2061.8 28.093 2142.4C-4.4288 2214.48 25.1506 2286.84 37.0427 2359.75C35.8117 2360.29 37.9239 2369.24 37.9717 2370.42C41.0492 2397.94 37.2084 2427.43 34.4352 2454.69C21.8882 2578 115.152 2590.51 44.2655 2749.19C19.0684 2805.4 -3.67249 2863.87 -40.3284 2913.87C-76.4181 2963.26 -122.451 3004.75 -158.042 3054.18C-177.404 3081.1 -211.697 3149.14 -153.96 3154.34C-86.5659 3160.36 -4.53169 3034.04 27.6002 2985.59C102.53 2872.99 175.806 2745.28 157.165 2605.03C150.833 2556.7 128.421 2511.26 124.947 2462.89C121.133 2409.61 136.333 2357.59 129.51 2304.18C124.54 2265.55 99.3804 2194.32 126.303 2159.11C165.038 2108.48 193.349 2203.21 195.333 2228.26C202.94 2318.53 175.747 2404.25 196.853 2493.88C202.001 2515.9 209.268 2571.54 242.435 2569.04C292.542 2565.07 285.059 2480.19 282.787 2448.05C273.613 2322.03 326.33 2241.25 244.696 2125.99C246.758 2125.53 241.992 2122.86 240.998 2121.08C228.951 2099.2 226.747 2076.31 228.252 2051.61C231.942 1993.89 243.959 1936.85 244.956 1879.19C247.51 1728.67 142.649 1617.25 110.078 1476.92C83.4642 1362.22 116.438 1201.53 110.019 1135.89C108.223 1117.24 99.5126 1069.17 91.0318 1051.85C65.657 999.235 52.1977 948.332 63.2203 889.51C72.079 842.054 92.0361 797.741 99.1004 749.766C108.74 683.08 102.265 611.395 122.125 546.588C137.654 496.284 169.014 452.124 189.858 404.04C212.255 352.253 229.651 270.404 280.852 239.177C346.913 198.884 307.817 324.028 300.985 343.314C267.228 437.435 216.804 528.684 191.785 626.045C178.966 676.121 188.315 729.46 178.471 780.006C172.097 812.94 127.404 935.332 184.206 943.126C236.206 950.264 248.847 859.032 253.907 825.797C262.803 766.423 255.891 707.287 272.598 648.708C302.953 541.816 359.74 442.483 377.867 331.996C382.319 304.743 385.343 276.674 386.305 249.067C386.934 231.333 373.488 143.995 407.938 148.676C438.084 152.751 443.184 193.4 444.157 216.838C447.275 288.517 443.206 373.065 429.504 443.368C414.542 521.099 366.905 586.606 350.098 664.317C329.773 758.461 342.968 856.52 309.814 948.015C301.196 971.653 287.415 991.575 272.721 1010.57C249.548 1040.28 224.118 1067.41 212.637 1102.68C195.274 1156.15 205.784 1211.29 203.396 1266.12C201.698 1305.91 194.349 1345.13 192.984 1384.95C192.09 1411.89 209.117 1475.58 242.801 1433.34C285.164 1380.06 237.531 1193.03 306.201 1095.74C310.317 1089.95 340.423 1049.86 365.72 1070.23C411.668 1107.15 339.805 1186.31 332.935 1227.42C323.445 1284.38 344.558 1340.93 329.682 1398.02C297.771 1520.2 225.139 1544.21 259.34 1693.27L259.174 1693.25C258.492 1693.35 264.506 1705.21 265.052 1706.44C270.085 1718.03 274.736 1730.09 278.904 1741.94C290.432 1775.52 300.777 1810.82 304.223 1846.27C309.921 1905.78 280.645 1965.77 289.535 2025.27C292.937 2047.95 311.337 2086.6 340.296 2066.04C398.197 2025.08 394.599 1855.8 379.479 1794.82C369.607 1754.86 346.913 1718.8 340.817 1678.05C323.152 1559.56 386.425 1507.06 410.422 1404.89C423.132 1350.94 411.9 1299.59 417.213 1245.73C419.597 1222.3 442.459 1160.99 442.727 1160.01C446.108 1146.58 447.81 1133.16 448.199 1119.43C448.798 1100.35 448.049 1081.3 445.954 1062.28C437.381 983.159 422.331 909.93 432.31 830.013C439.913 768.493 447.223 703.248 464.215 643.522C477.11 597.652 499.842 554.125 509.297 507.401C526.516 422.344 517.52 337.474 512.597 252.179C510.709 219.58 513.725 186.641 508.794 154.236C508.045 155 507.983 152.307 507.935 151.127C506.75 134.719 504.551 118.376 501.67 102.131C495.976 68.9775 486.008 36.5643 480.647 3.4443C462.244 -111.095 472.23 -224.09 517.562 -331.305C527.093 -354.01 560.899 -438.723 598.986 -421.919C634.515 -406.382 537.783 -133.969 540.559 -57.2875C542.512 -3.86161 565.515 45.6615 574.999 97.671C582.837 141.117 572.688 184.749 577.832 228.257C597.497 391.451 643.637 423.179 584.892 606.1C586.014 601.68 583.813 615.057 582.875 619.327C581.215 627.386 579.074 635.228 576.434 643.019C566.359 672.721 551.302 700.237 541.21 730.106C511.186 818.897 511.87 894.694 514.135 987.946C517.525 1132.86 506.678 1282.37 477.409 1424.8C463.73 1491.58 429.448 1552.91 426.253 1622.27C423.665 1677.41 443.039 1729.59 450.476 1783.57C452.155 1783.58 452.569 1794.36 452.96 1798.77C456.892 1850.89 457.912 1905.22 449.628 1956.94C421.078 2135.21 336.254 2231.18 344.701 2422.12C345.759 2444.72 342.988 2480.21 366.737 2492.7C405.947 2513.31 420.199 2432.65 419.191 2409.55C414.451 2286.15 447.187 2273.03 484.77 2167.71C508.455 2101.62 513.198 2040.14 516.875 1971C517.992 1950.12 519.195 1821.12 527.835 1813.78C532.446 1809.71 539.545 1809.26 545.345 1810.02C583.801 1814.94 568.05 1964.79 566.142 1981.89C564.586 1997.18 563.319 2057.5 559.807 2088.71C554.489 2136.02 509.458 2261.73 499.769 2347.05C489.745 2434.02 454.277 2508.66 388.49 2572.65C349.528 2610.66 303.676 2633.87 272.229 2680.54C216.25 2763.67 194.623 2860.7 152.165 2949.57C124.889 3006.41 -34.8245 3201.39 -80.4511 3228.98C-167.761 3281.72 -255.889 3144.47 -342.568 3332.94C-352.045 3353.47 -372.416 3387 -363.414 3410.75C-334.111 3489.12 -176.929 3210.1 -168.778 3341.22C-166.078 3385.66 -464.43 3670.8 -368.317 3718.03C-362.554 3720.8 -356.438 3721.75 -350.205 3721.55C-347.678 3721.47 -345.3 3721.21 -342.723 3720.63C-292.37 3709.3 -254.937 3603.8 -225.017 3565.54C-188.899 3519.18 -147.686 3477.19 -111.701 3430.48C-86.5609 3397.95 -70.6351 3358.6 -43.4702 3327.61C47.7348 3223.39 146.617 3149.33 210.787 3020.35C228.935 2983.91 274.272 2767.73 332.004 2786.19C357.539 2794.33 350.79 2832.6 346.302 2851.96C331.347 2916.42 287.389 2968.87 261.82 3028.73C213.285 3142.68 182.268 3247.82 152.64 3367.38C143.819 3402.92 113.604 3467.18 147.794 3497.52C159.196 3507.58 168.67 3498.64 176.716 3488.88C197.537 3464.13 207.271 3429.52 216.066 3399.19C226.753 3361.82 263.895 3107.36 317.753 3125.94C327.97 3129.49 333.468 3141.47 336.543 3150.85C378.084 3275.64 161.933 3587.95 179.096 3775.74C180.123 3787.1 182.116 3817.02 198.569 3818.69C225.826 3821.47 270.831 3595.34 289.552 3554.93C324.857 3478.6 379.141 3413.77 397.622 3329.51C418.933 3232.28 382.276 3138.71 384.504 3042.56C386.028 2978.07 420.791 2916.96 433.865 2854.49C448.598 2783.95 445.531 2711.78 466.214 2642.18C472.634 2620.34 484.315 2584.75 506.144 2573.21C512.166 2570.12 517.851 2570.37 522.729 2575.23C592.129 2642.4 473.233 2928.01 465.381 3018.38C458.357 3100.62 473.24 3183.73 464.151 3268.11C461.818 3291.04 462.399 3319.98 492.94 3316.88C569.817 3308.91 533.911 3059.44 544.018 3001.37C567.005 2867.87 621.543 2752.69 622.781 2613.45C623.487 2522.35 572.119 2438.03 581.369 2347.13C593.561 2227.31 614.751 2142.82 639.002 2008.44C656.004 1913.96 649.602 1790.4 577.521 1716.57C556.68 1695.31 537.71 1668.87 529.083 1639.78C501.006 1544.41 564.607 1359.96 583.857 1263.19C593.583 1213.81 595.972 1158.98 597.887 1108.8C601.444 1012.78 553.626 913.383 583.747 817.045C582.011 820.898 583.096 808.584 584.018 804.48C586.227 795.973 589.765 787.602 593.751 779.78C605.344 756.613 619.976 734.93 634.408 713.563C678.07 649.163 692.931 562.522 696.005 486.1C699.68 398.825 666.703 330.153 652.037 246.553C643.822 200.214 649.225 152.07 646.779 105.142C643.9 49.2715 627.506 -5.79177 626.455 -61.4767C625.669 -106.556 644.535 -192.957 644.701 -192.94C644.701 -192.94 647.939 -209.905 648.24 -211.218C659.338 -255.928 677.946 -298.531 687.731 -343.542C699.728 -398.739 676.1 -452.02 670.193 -506.184C662.174 -579.201 694.517 -740.293 755.753 -787.626C852.027 -862.456 897.761 -673.27 905.783 -611.839C914.135 -548.695 918.734 -478.376 909.467 -415.346C893.943 -310.639 849.247 -196.475 871.287 -89.6245C885.892 -18.624 927.16 32.9255 958.368 95.8766C968.141 115.341 973.07 129.611 977.855 140.341C991.003 169.551 1002.72 199.624 1015.15 229.266C1051.74 316.943 1071.68 408.131 1096.8 499.512C1128.85 615.272 1190.64 729.189 1193.3 851.53C1194.29 894.616 1180.37 937.359 1176.71 979.971C1172.68 1027.75 1179.67 1124.17 1186.04 1168.81C1202.02 1280.75 1236.16 1389.17 1249.91 1501.56C1260.64 1589.12 1245.32 1681.93 1269.35 1767.66C1279.59 1803.96 1300.02 1839.12 1316.59 1872.71C1340.69 1921.33 1365.47 1969.86 1393.3 2016.52C1398.03 2024.56 1413.82 2059.07 1425.72 2059.28C1466.28 2060.04 1435.03 1986.01 1428.36 1969.04C1398.54 1892.46 1355.99 1820.47 1332.81 1741.37C1325.09 1714.9 1313.69 1663.53 1356.97 1665.59C1384.21 1666.85 1404.85 1713.27 1415.27 1732.97C1454.98 1808.04 1483.17 1889.15 1513.22 1968.44C1516.64 1977.69 1547.93 2061.3 1555.43 2061.9C1585.89 2064.49 1584.52 2018.51 1583.48 1999.1C1580.54 1935.5 1564.27 1867.68 1542.13 1808.01C1519.32 1746.75 1497.02 1682.02 1450.88 1633.83C1411.87 1593.09 1352.11 1573.08 1325.52 1520.84C1293.73 1458.67 1317.91 1387.75 1312.37 1321.7C1306.23 1246.69 1270.32 1177.22 1260.79 1102.54C1257.67 1078.71 1221.91 964.758 1255.69 954.594C1273.88 949.057 1282.06 979.273 1285.4 991.031C1290.22 1007.98 1292.21 1013.22 1294.42 1019.49C1299.29 1032.74 1301.38 1046.89 1305.54 1060.41C1318.83 1103.07 1351.89 1136.32 1364.76 1179.78C1391.04 1268.08 1330.73 1410.21 1398.8 1482.29C1404.25 1488.05 1412.71 1494.11 1421.3 1492.13C1479.4 1478.9 1393.36 1288.13 1454.36 1300.89C1511.92 1312.79 1492.08 1620.06 1573.62 1558C1604.19 1534.75 1559.44 1345.83 1552.28 1303.97C1541.68 1243.11 1520.11 1182.82 1474.86 1139.09C1450.1 1115.08 1422.34 1095.8 1404.44 1065.44C1379.23 1022.74 1365.57 973.833 1344.25 929.183C1324.31 887.528 1294.9 851.457 1276.4 808.774C1253.16 755.028 1244.52 694.709 1229.26 638.418C1235.17 631.463 1168.12 465.295 1155.08 439.957C1100.25 333.632 1078.52 208.848 1036.69 96.7938C1011.49 29.2488 966.543 -27.3766 944.938 -97.2423C934.573 -130.703 931.672 -250.718 970.817 -269.067C1037.63 -300.217 1032.95 -92.4853 1036.64 -67.7622C1041.01 -38.1013 1050.51 -9.26262 1062.14 18.2833C1098.18 104.729 1146.4 185.363 1181.85 272.589C1204.83 328.993 1213.98 389.197 1235.41 445.948C1258.97 508.121 1288.67 567.729 1304.55 632.814C1328.73 731.822 1357.17 889.696 1451.47 946.473C1495.6 973.128 1505.78 912.709 1494.61 882.189C1481.71 847.294 1359.77 614.925 1391.95 594.021C1434.37 566.602 1535.4 796.507 1558.29 838.966C1566.32 854.056 1598.99 907.585 1622.76 890.19C1654.52 866.892 1603.48 784.292 1591.39 759.555C1562.78 700.73 1543.27 630.07 1492.53 585.785C1435.31 535.97 1354.84 523.081 1311.17 457.183C1278.73 408.042 1287.96 343.665 1268.44 289.627C1231.48 187.472 1161.38 95.8801 1131.02 -8.45793C1111.39 -76.2758 1130.28 -148.066 1111.33 -215.982C1087.83 -300.146 1038.53 -322.289 1014.2 -391.761C1006.01 -415.261 1004.06 -420.833 1002.36 -427.219C998.606 -439.858 995.386 -452.779 993.015 -465.781C985.885 -504.622 988.698 -545.474 985.824 -584.889C980.464 -657.635 953.386 -724.868 918.339 -788.042C897.625 -825.41 872.599 -858.348 864.229 -901.513C857.571 -935.101 870.356 -965.031 870.197 -998.125C870.12 -1030.37 851.682 -1057.1 824.211 -1051.16" fill="#1C573F"/>
<path d="M825.11 -1051.74C780.295 -1042.03 790.959 -960.348 748.257 -903.742C697.026 -835.914 645.964 -779.655 617.628 -695.897C600.803 -646.061 596.282 -588.424 572.031 -541.526C540.927 -481.725 478.04 -431.37 443.211 -361.37C418.941 -312.627 412.761 -256.838 382.212 -210.749C309.399 -100.789 192.441 -42.1678 103.516 51.2088C50.1101 107.398 19.3265 173.948 -11.4459 243.689C-12.1107 243.622 -12.2967 245.45 -12.3475 245.948C-29.5725 296.416 -43.4933 349.066 -77.8588 391.409C-131.031 456.856 -271.015 547.052 -256.778 638.165C-253.193 660.693 -234.83 663.401 -214.731 662.256C-162.548 659.338 -132.537 597.075 -99.3379 566.2C-54.8345 524.888 -13.2574 474.38 13.5002 419.342C78.8757 285.118 72.415 205.04 202.014 103.04C237.252 75.2268 355.488 -78.4692 388.198 -28.6301C426.71 30.1949 195.128 202.078 158.486 243.685C69.4305 344.94 68.9526 496.514 1.91603 610.756C-25.7088 657.814 -68.2236 702.685 -114.766 731.028C-142.338 747.868 -173.792 759.947 -197.436 782.728C-248.469 832.106 -265.399 894.525 -297.402 954.906C-318.781 995.044 -364.493 1033.38 -356.8 1083.19C-348.892 1134.2 -289.454 1088.03 -276.272 1069.05C-215.164 980.065 -195.782 893.548 -101.294 823.07C-73.6652 802.374 -38.2181 759.302 -4.54843 773.306C24.2875 785.307 -26.126 889.654 -29.1813 926.283C-30.4186 940.094 -29.9152 956.6 -29.8843 957.947C-28.6234 978.56 -23.9202 998.348 -16.6395 1017.56C-15.8452 1019.65 -16.1099 1018.96 -15.0509 1021.75C6.38829 1081.69 17.721 1132.04 14.884 1196.23C13.7278 1220.8 1.60747 1318.46 -1.51792 1347.53C-4.57567 1375.93 -5.27286 1404.24 -2.44611 1432.56C2.97935 1486.51 17.6161 1539.05 44.8785 1586.32C64.5838 1620.39 89.2778 1653.29 102.428 1690.73C101.729 1691 103.839 1691.72 104.27 1692.43C109.261 1699.49 111.574 1708.12 114.12 1716.1C120.386 1735.38 125.771 1755.07 130.658 1774.71C145.283 1833.96 153.054 1896.2 146.184 1957.12C134.57 2059.71 64.3364 2061.8 28.093 2142.4C-4.4288 2214.48 25.1506 2286.84 37.0427 2359.75C35.8117 2360.29 37.9239 2369.24 37.9717 2370.42C41.0492 2397.94 37.2084 2427.43 34.4352 2454.69C21.8882 2578 115.152 2590.51 44.2655 2749.19C19.0684 2805.4 -3.67249 2863.87 -40.3284 2913.87C-76.4181 2963.26 -122.451 3004.75 -158.042 3054.18C-177.404 3081.1 -211.697 3149.14 -153.96 3154.34C-86.5659 3160.36 -4.53169 3034.04 27.6002 2985.59C102.53 2872.99 175.806 2745.28 157.165 2605.03C150.833 2556.7 128.421 2511.26 124.947 2462.89C121.133 2409.61 136.333 2357.59 129.51 2304.18C124.54 2265.55 99.3804 2194.32 126.303 2159.11C165.038 2108.48 193.349 2203.21 195.333 2228.26C202.94 2318.53 175.747 2404.25 196.853 2493.88C202.001 2515.9 209.268 2571.54 242.435 2569.04C292.542 2565.07 285.059 2480.19 282.787 2448.05C273.613 2322.03 326.33 2241.25 244.696 2125.99C246.758 2125.53 241.992 2122.86 240.998 2121.08C228.951 2099.2 226.747 2076.31 228.252 2051.61C231.942 1993.89 243.959 1936.85 244.956 1879.19C247.51 1728.67 142.649 1617.25 110.078 1476.92C83.4642 1362.22 116.438 1201.53 110.019 1135.89C108.223 1117.24 99.5126 1069.17 91.0318 1051.85C65.657 999.235 52.1977 948.332 63.2203 889.51C72.079 842.054 92.0361 797.741 99.1004 749.766C108.74 683.08 102.265 611.395 122.125 546.588C137.654 496.284 169.014 452.124 189.858 404.04C212.255 352.253 229.651 270.404 280.852 239.177C346.913 198.884 307.817 324.028 300.985 343.314C267.228 437.435 216.804 528.684 191.785 626.045C178.966 676.121 188.315 729.46 178.471 780.006C172.097 812.94 127.404 935.332 184.206 943.126C236.206 950.264 248.847 859.032 253.907 825.797C262.803 766.423 255.891 707.287 272.598 648.708C302.953 541.816 359.74 442.483 377.867 331.996C382.319 304.743 385.343 276.674 386.305 249.067C386.934 231.333 373.488 143.995 407.938 148.676C438.084 152.751 443.184 193.4 444.157 216.838C447.275 288.517 443.206 373.065 429.504 443.368C414.542 521.099 366.905 586.606 350.098 664.317C329.773 758.461 342.968 856.52 309.814 948.015C301.196 971.653 287.415 991.575 272.721 1010.57C249.548 1040.28 224.118 1067.41 212.637 1102.68C195.274 1156.15 205.784 1211.29 203.396 1266.12C201.698 1305.91 194.349 1345.13 192.984 1384.95C192.09 1411.89 209.117 1475.58 242.801 1433.34C285.164 1380.06 237.531 1193.03 306.201 1095.74C310.317 1089.95 340.423 1049.86 365.72 1070.23C411.668 1107.15 339.805 1186.31 332.935 1227.42C323.445 1284.38 344.558 1340.93 329.682 1398.02C297.771 1520.2 225.139 1544.21 259.34 1693.27L259.174 1693.25C258.492 1693.35 264.506 1705.21 265.052 1706.44C270.085 1718.03 274.736 1730.09 278.904 1741.94C290.432 1775.52 300.777 1810.82 304.223 1846.27C309.921 1905.78 280.645 1965.77 289.535 2025.27C292.937 2047.95 311.337 2086.6 340.296 2066.04C398.197 2025.08 394.599 1855.8 379.479 1794.82C369.607 1754.86 346.913 1718.8 340.817 1678.05C323.152 1559.56 386.425 1507.06 410.422 1404.89C423.132 1350.94 411.9 1299.59 417.213 1245.73C419.597 1222.3 442.459 1160.99 442.727 1160.01C446.108 1146.58 447.81 1133.16 448.199 1119.43C448.798 1100.35 448.049 1081.3 445.954 1062.28C437.381 983.159 422.331 909.93 432.31 830.013C439.913 768.493 447.223 703.248 464.215 643.522C477.11 597.652 499.842 554.125 509.297 507.401C526.516 422.344 517.52 337.474 512.597 252.179C510.709 219.58 513.725 186.641 508.794 154.236C508.045 155 507.983 152.307 507.935 151.127C506.75 134.719 504.551 118.376 501.67 102.131C495.976 68.9775 486.008 36.5643 480.647 3.4443C462.244 -111.095 472.23 -224.09 517.562 -331.305C527.093 -354.01 560.899 -438.723 598.986 -421.919C634.515 -406.382 537.783 -133.969 540.559 -57.2875C542.512 -3.86161 565.515 45.6615 574.999 97.671C582.837 141.117 572.688 184.749 577.832 228.257C597.497 391.451 643.637 423.179 584.892 606.1C586.014 601.68 583.813 615.057 582.875 619.327C581.215 627.386 579.074 635.228 576.434 643.019C566.359 672.721 551.302 700.237 541.21 730.106C511.186 818.897 511.87 894.694 514.135 987.946C517.525 1132.86 506.678 1282.37 477.409 1424.8C463.73 1491.58 429.448 1552.91 426.253 1622.27C423.665 1677.41 443.039 1729.59 450.476 1783.57C452.155 1783.58 452.569 1794.36 452.96 1798.77C456.892 1850.89 457.912 1905.22 449.628 1956.94C421.078 2135.21 336.254 2231.18 344.701 2422.12C345.759 2444.72 342.988 2480.21 366.737 2492.7C405.947 2513.31 420.199 2432.65 419.191 2409.55C414.451 2286.15 447.187 2273.03 484.77 2167.71C508.455 2101.62 513.198 2040.14 516.875 1971C517.992 1950.12 519.195 1821.12 527.835 1813.78C532.446 1809.71 539.545 1809.26 545.345 1810.02C583.801 1814.94 568.05 1964.79 566.142 1981.89C564.586 1997.18 563.319 2057.5 559.807 2088.71C554.489 2136.02 509.458 2261.73 499.769 2347.05C489.745 2434.02 454.277 2508.66 388.49 2572.65C349.528 2610.66 303.676 2633.87 272.229 2680.54C216.25 2763.67 194.623 2860.7 152.165 2949.57C124.889 3006.41 -34.8245 3201.39 -80.4511 3228.98C-167.761 3281.72 -255.889 3144.47 -342.568 3332.94C-352.045 3353.47 -372.416 3387 -363.414 3410.75C-334.111 3489.12 -176.929 3210.1 -168.778 3341.22C-166.078 3385.66 -464.43 3670.8 -368.317 3718.03C-362.554 3720.8 -356.438 3721.75 -350.205 3721.55C-347.678 3721.47 -345.3 3721.21 -342.723 3720.63C-292.37 3709.3 -254.937 3603.8 -225.017 3565.54C-188.899 3519.18 -147.686 3477.19 -111.701 3430.48C-86.5609 3397.95 -70.6351 3358.6 -43.4702 3327.61C47.7348 3223.39 146.617 3149.33 210.787 3020.35C228.935 2983.91 274.272 2767.73 332.004 2786.19C357.539 2794.33 350.79 2832.6 346.302 2851.96C331.347 2916.42 287.389 2968.87 261.82 3028.73C213.285 3142.68 182.268 3247.82 152.64 3367.38C143.819 3402.92 113.604 3467.18 147.794 3497.52C159.196 3507.58 168.67 3498.64 176.716 3488.88C197.537 3464.13 207.271 3429.52 216.066 3399.19C226.753 3361.82 263.895 3107.36 317.753 3125.94C327.97 3129.49 333.468 3141.47 336.543 3150.85C378.084 3275.64 161.933 3587.95 179.096 3775.74C180.123 3787.1 182.116 3817.02 198.569 3818.69C225.826 3821.47 270.831 3595.34 289.552 3554.93C324.857 3478.6 379.141 3413.77 397.622 3329.51C418.933 3232.28 382.276 3138.71 384.504 3042.56C386.028 2978.07 420.791 2916.96 433.865 2854.49C448.598 2783.95 445.531 2711.78 466.214 2642.18C472.634 2620.34 484.315 2584.75 506.144 2573.21C512.166 2570.12 517.851 2570.37 522.729 2575.23C592.129 2642.4 473.233 2928.01 465.381 3018.38C458.357 3100.62 473.24 3183.73 464.151 3268.11C461.818 3291.04 462.399 3319.98 492.94 3316.88C569.817 3308.91 533.911 3059.44 544.018 3001.37C567.005 2867.87 621.543 2752.69 622.781 2613.45C623.487 2522.35 572.119 2438.03 581.369 2347.13C593.561 2227.31 614.751 2142.82 639.002 2008.44C656.004 1913.96 649.602 1790.4 577.521 1716.57C556.68 1695.31 537.71 1668.87 529.083 1639.78C501.006 1544.41 564.607 1359.96 583.857 1263.19C593.583 1213.81 595.972 1158.98 597.887 1108.8C601.444 1012.78 553.626 913.383 583.747 817.045C582.011 820.898 583.096 808.584 584.018 804.48C586.227 795.973 589.765 787.602 593.751 779.78C605.344 756.613 619.976 734.93 634.408 713.563C678.07 649.163 692.931 562.522 696.005 486.1C699.68 398.825 666.703 330.153 652.037 246.553C643.822 200.214 649.225 152.07 646.779 105.142C643.9 49.2715 627.506 -5.79177 626.455 -61.4767C625.669 -106.556 644.535 -192.957 644.701 -192.94C644.701 -192.94 647.939 -209.905 648.24 -211.218C659.338 -255.928 677.946 -298.531 687.731 -343.542C699.728 -398.739 676.1 -452.02 670.193 -506.184C662.174 -579.201 694.517 -740.293 755.753 -787.626C852.027 -862.456 897.761 -673.27 905.783 -611.839C914.135 -548.695 918.734 -478.376 909.467 -415.346C893.943 -310.639 849.247 -196.475 871.287 -89.6245C885.892 -18.624 927.16 32.9255 958.368 95.8766C968.141 115.341 973.07 129.611 977.855 140.341C991.003 169.551 1002.72 199.624 1015.15 229.266C1051.74 316.943 1071.68 408.131 1096.8 499.512C1128.85 615.272 1190.64 729.189 1193.3 851.53C1194.29 894.616 1180.37 937.359 1176.71 979.971C1172.68 1027.75 1179.67 1124.17 1186.04 1168.81C1202.02 1280.75 1236.16 1389.17 1249.91 1501.56C1260.64 1589.12 1245.32 1681.93 1269.35 1767.66C1279.59 1803.96 1300.02 1839.12 1316.59 1872.71C1340.69 1921.33 1365.47 1969.86 1393.3 2016.52C1398.03 2024.56 1413.82 2059.07 1425.72 2059.28C1466.28 2060.04 1435.03 1986.01 1428.36 1969.04C1398.54 1892.46 1355.99 1820.47 1332.81 1741.37C1325.09 1714.9 1313.69 1663.53 1356.97 1665.59C1384.21 1666.85 1404.85 1713.27 1415.27 1732.97C1454.98 1808.04 1483.17 1889.15 1513.22 1968.44C1516.64 1977.69 1547.93 2061.3 1555.43 2061.9C1585.89 2064.49 1584.52 2018.51 1583.48 1999.1C1580.54 1935.5 1564.27 1867.68 1542.13 1808.01C1519.32 1746.75 1497.02 1682.02 1450.88 1633.83C1411.87 1593.09 1352.11 1573.08 1325.52 1520.84C1293.73 1458.67 1317.91 1387.75 1312.37 1321.7C1306.23 1246.69 1270.32 1177.22 1260.79 1102.54C1257.67 1078.71 1221.91 964.758 1255.69 954.594C1273.88 949.057 1282.06 979.273 1285.4 991.031C1290.22 1007.98 1292.21 1013.22 1294.42 1019.49C1299.29 1032.74 1301.38 1046.89 1305.54 1060.41C1318.83 1103.07 1351.89 1136.32 1364.76 1179.78C1391.04 1268.08 1330.73 1410.21 1398.8 1482.29C1404.25 1488.05 1412.71 1494.11 1421.3 1492.13C1479.4 1478.9 1393.36 1288.13 1454.36 1300.89C1511.92 1312.79 1492.08 1620.06 1573.62 1558C1604.19 1534.75 1559.44 1345.83 1552.28 1303.97C1541.68 1243.11 1520.11 1182.82 1474.86 1139.09C1450.1 1115.08 1422.34 1095.8 1404.44 1065.44C1379.23 1022.74 1365.57 973.833 1344.25 929.183C1324.31 887.528 1294.9 851.457 1276.4 808.774C1253.16 755.028 1244.52 694.709 1229.26 638.418C1235.17 631.463 1168.12 465.295 1155.08 439.957C1100.25 333.632 1078.52 208.848 1036.69 96.7938C1011.49 29.2488 966.543 -27.3766 944.938 -97.2423C934.573 -130.703 931.672 -250.718 970.817 -269.067C1037.63 -300.217 1032.95 -92.4853 1036.64 -67.7622C1041.01 -38.1013 1050.51 -9.26262 1062.14 18.2833C1098.18 104.729 1146.4 185.363 1181.85 272.589C1204.83 328.993 1213.98 389.197 1235.41 445.948C1258.97 508.121 1288.67 567.729 1304.55 632.814C1328.73 731.822 1357.17 889.696 1451.47 946.473C1495.6 973.128 1505.78 912.709 1494.61 882.189C1481.71 847.294 1359.77 614.925 1391.95 594.021C1434.37 566.602 1535.4 796.507 1558.29 838.966C1566.32 854.056 1598.99 907.585 1622.76 890.19C1654.52 866.892 1603.48 784.292 1591.39 759.555C1562.78 700.73 1543.27 630.07 1492.53 585.785C1435.31 535.97 1354.84 523.081 1311.17 457.183C1278.73 408.042 1287.96 343.665 1268.44 289.627C1231.48 187.472 1161.38 95.8801 1131.02 -8.45793C1111.39 -76.2758 1130.28 -148.066 1111.33 -215.982C1087.83 -300.146 1038.53 -322.289 1014.2 -391.761C1006.01 -415.261 1004.06 -420.833 1002.36 -427.219C998.606 -439.858 995.386 -452.779 993.015 -465.781C985.885 -504.622 988.698 -545.474 985.824 -584.889C980.464 -657.635 953.386 -724.868 918.339 -788.042C897.625 -825.41 872.599 -858.348 864.229 -901.513C857.571 -935.101 870.356 -965.031 870.197 -998.125C870.12 -1030.37 851.682 -1057.1 824.211 -1051.16" stroke="#1C573F" stroke-width="0.31" stroke-linecap="round" stroke-linejoin="round"/>
<path fill-rule="evenodd" clip-rule="evenodd" d="M778.205 -729.428C756.07 -723.117 751.661 -663.286 749.651 -635.282C742.573 -531.059 757.652 -426.764 746.053 -322.665C735.329 -225.529 697.612 -138.696 698.038 -38.9142C698.546 71.6218 716.086 184.731 747.768 290.883C763.402 343.518 787.453 392.644 799.96 446.304C834.843 595.263 703.987 712.918 675.972 851.279C657.947 940.956 695.827 1029.1 687.693 1118.94C677.017 1237.07 623.668 1347.17 613.789 1465.71C600.074 1630.21 699.842 1745.48 712.682 1904.78C722.428 2026.84 645.232 2123.76 635.057 2240.26C624.172 2363.74 684.71 2480.05 698.78 2600.87C715.26 2740.9 640.82 2868.49 649.519 3018.98C653.668 3090.43 638.659 3166.98 611.881 3233.77C591.63 3284.27 566.434 3330.57 543.711 3369.06C506.116 3433.23 428.163 3410.53 374.912 3531.21C310.947 3676.32 274.851 3844.59 242.604 3998.14C237.307 4023.79 221.27 4088.99 259.605 4096.75C315.537 4108.15 357.147 3951.69 374.743 3811.77C389.675 3693.06 426.832 3603.49 440.884 3571C458.241 3530.79 484.3 3533.78 502.384 3544.18C516.499 3552.33 525.915 3557.15 519.95 3604.23C512.603 3661.58 473.468 3770.6 446.951 3917.34C435.035 3983.29 389.66 4048.02 432.46 4059.77C510.382 4081.13 527.302 3822.42 550.911 3762.03C552.965 3756.69 560.552 3723.38 570.603 3717.01C575.446 3713.98 609.545 3700.66 592.294 3766.24C588.479 3780.62 556.768 3912.4 610.604 3856.92C615.867 3851.41 620.318 3843.98 623.521 3837.25C672.013 3738.58 631.415 3703.56 596.868 3600.81C569.548 3519.45 616.151 3465.76 638.79 3418.19C659.927 3373.83 700.141 3323.52 721.194 3270.08C756.939 3179.52 724.677 3082.38 728.898 2986.43C734.539 2858.38 770.708 2733.95 772.793 2604.53C774.031 2532.96 777.246 2451.85 762.041 2381.8C751.503 2333.55 720.283 2287.22 724.127 2236.23C725.421 2218.56 734.025 2203.32 751.853 2198.08C838.218 2172.78 877.025 2647.88 868.472 2720.39C856.444 2822.09 801.567 2912.55 787.578 3013.72C784.143 3039.23 776.417 3085.46 795.081 3106.67C838.447 3155.75 850.134 2991.38 852.397 2980.69C872.326 2885.5 965.633 2805.16 952.61 2703.76C945.672 2649.83 941.154 2590.27 929.777 2537.06C918.382 2484.01 919.895 2416.33 901.948 2374.88C892.428 2352.92 906.593 2322.63 931.837 2335.27C963.476 2351.08 968.055 2433.15 976.963 2462.77C998.531 2534.65 1059.67 2734.13 1051.63 2829.7C1042.82 2934.41 1067.85 2954.09 1098.8 2948.67C1151.77 2939.62 1130.75 2831.03 1127.87 2783.39C1119.17 2634.57 1031.85 2489.35 989.242 2340.44C971.646 2279.04 847.231 2189.82 838.688 2112.04C806.027 1812.53 750.067 1750.25 712.061 1542.88C678.78 1361.67 792.437 1337.14 767.389 999.106C761.754 922.47 748.769 779.433 808.871 763.049C870.354 746.301 855.754 1086.18 837.008 1237.4C825.426 1331.43 792.78 1340.36 792.464 1533.26C792.21 1641.37 840.986 1734.65 866.674 1837C882.654 1901.09 880.58 1966.03 884.672 2031.43C886.547 2062.51 884.83 2152 922.888 2165.78C1005 2195.46 904.982 1917.63 959.633 1920.17C966.647 1920.55 973.136 1926.08 977.316 1931.21C1024.19 1988.7 1005.94 2229.14 1072.6 2341.37C1085.51 2363 1113.66 2456.03 1153.7 2442.14C1204.18 2424.6 1131.66 2315.47 1115.59 2263.8C1090.17 2181.96 1106.81 2092.65 1078.61 2010.02C1039.3 1894.7 957.224 1803.57 912.27 1692.54C838.017 1509.68 903.449 1313.84 920.827 1126.55C937.662 946.245 894.027 619.251 892.687 606.018C887.037 547.682 881.229 484.293 864.919 428.399C839.571 340.858 781.197 280.851 790.934 186.805C794.772 149.08 842.717 136.664 850.334 182.271C859.579 238.286 890.373 300.355 910.41 354.278C940.755 435.612 940.962 527.647 958.901 612.084C977.896 700.994 1010.84 786.454 1018.53 877.571C1033.03 1050.31 973.319 1368.14 965.047 1403.23C958.835 1429.63 922.191 1568.62 980.073 1720.93C1009.46 1798.47 1065.11 1860.55 1098.95 1935.52C1137.19 2020.18 1128.94 2111.19 1154.35 2198.06C1176.76 2274.89 1230.29 2346.16 1236.69 2426.9C1246.04 2544.55 1183.24 2648.48 1185.18 2766.38C1185.94 2811.79 1199.84 2866.6 1203.6 2912.15C1207.93 2963.64 1200.63 3015.62 1199.59 3067.06C1197.64 3168.79 1239.53 3245.58 1294.1 3328.04C1312.44 3355.76 1364.15 3466.47 1397.24 3466.31C1453.18 3466.13 1393.99 3354.66 1383.98 3337.52C1359.54 3295.57 1327.29 3259.38 1301.92 3218.18C1258.41 3147.43 1262.26 3065.04 1264.49 2985.35C1265.26 2958.05 1251.65 2893.7 1273.57 2871.42C1294.91 2849.75 1309.83 2906.17 1312.5 2917.86C1317.83 2941.41 1316.72 3171.83 1370.47 3115.51C1416.5 3067.47 1396.12 2959.11 1385.72 2901.3C1371.2 2819.56 1308.52 2750.72 1300.6 2668.48C1290.54 2564.36 1352.95 2460.9 1324.64 2357.94C1311.49 2310.6 1283.03 2270.09 1258.95 2227.85C1243.41 2200.74 1231.26 2171.63 1222.4 2141.52C1216.02 2120.05 1193.3 1983.57 1218.29 1978.9C1256.45 1971.87 1278.22 2071.47 1283.05 2098.32C1291.89 2146.74 1316.93 2182.87 1337.88 2226.14C1375.91 2304.56 1394.6 2398.14 1383.25 2484.97C1382.49 2490.77 1331.82 2714.81 1397.84 2684.76C1430.07 2670.07 1447.28 2542.19 1449.07 2512.99C1453.59 2440.58 1465.31 2360 1448.73 2288.63C1432.89 2219.85 1391.29 2169.95 1360.92 2108.6C1347.82 2082.24 1344.73 2053.22 1334.4 2025.97C1331.64 2018.47 1329.14 2013.35 1326.61 2006.88C1321.66 1994.45 1316.64 1982.69 1308.48 1972.12C1283.55 1939.87 1256.28 1909.22 1224.46 1883.65C1105.59 1787.77 1017.77 1763.05 1011.83 1588.66C1008.85 1499.19 1003.35 1295.8 1067.58 1324.67C1115.45 1345.99 1079.85 1464.78 1096.84 1609.73C1105.23 1680.77 1093.12 1723.87 1120.38 1743.1C1147.77 1762.68 1172.67 1752.28 1180.88 1714.5C1182.51 1706.77 1179.78 1642.85 1167.03 1553.57C1155.96 1475.88 1167.18 1411.87 1158.43 1369.17C1145.58 1307.25 1099.11 1257.35 1090.14 1193.64C1076.7 1098.08 1100.91 1001.98 1095.05 906.177C1086.75 771.51 1034.36 647.802 1011.29 516.333C997.862 440.415 1006.01 360.312 980.94 286.567C946.193 184.133 861.997 98.9992 821.428 -0.669195C779.799 -103.132 832.135 -223.067 836.123 -328.276C839.209 -411.413 826.779 -490.588 833.904 -573.818C835.939 -597.118 826.746 -741.112 783.662 -731.896" fill="#1C573F"/>
<path d="M778.205 -729.428C756.07 -723.117 751.661 -663.286 749.651 -635.282C742.573 -531.059 757.652 -426.764 746.053 -322.665C735.329 -225.529 697.612 -138.696 698.038 -38.9142C698.546 71.6218 716.086 184.731 747.768 290.883C763.402 343.518 787.453 392.644 799.96 446.304C834.843 595.263 703.987 712.918 675.972 851.279C657.947 940.956 695.827 1029.1 687.693 1118.94C677.017 1237.07 623.668 1347.17 613.789 1465.71C600.074 1630.21 699.842 1745.48 712.682 1904.78C722.428 2026.84 645.232 2123.76 635.057 2240.26C624.172 2363.74 684.71 2480.05 698.78 2600.87C715.26 2740.9 640.82 2868.49 649.519 3018.98C653.668 3090.43 638.659 3166.98 611.881 3233.77C591.63 3284.27 566.434 3330.57 543.711 3369.06C506.116 3433.23 428.163 3410.53 374.912 3531.21C310.947 3676.32 274.851 3844.59 242.604 3998.14C237.307 4023.79 221.27 4088.99 259.605 4096.75C315.537 4108.15 357.147 3951.69 374.743 3811.77C389.675 3693.06 426.832 3603.49 440.884 3571C458.241 3530.79 484.3 3533.78 502.384 3544.18C516.499 3552.33 525.915 3557.15 519.95 3604.23C512.603 3661.58 473.468 3770.6 446.951 3917.34C435.035 3983.29 389.66 4048.02 432.46 4059.77C510.382 4081.13 527.302 3822.42 550.911 3762.03C552.965 3756.69 560.552 3723.38 570.603 3717.01C575.446 3713.98 609.545 3700.66 592.294 3766.24C588.479 3780.62 556.768 3912.4 610.604 3856.92C615.867 3851.41 620.318 3843.98 623.521 3837.25C672.013 3738.58 631.415 3703.56 596.868 3600.81C569.548 3519.45 616.151 3465.76 638.79 3418.19C659.927 3373.83 700.141 3323.52 721.194 3270.08C756.939 3179.52 724.677 3082.38 728.898 2986.43C734.539 2858.38 770.708 2733.95 772.793 2604.53C774.031 2532.96 777.246 2451.85 762.041 2381.8C751.503 2333.55 720.283 2287.22 724.127 2236.23C725.421 2218.56 734.025 2203.32 751.853 2198.08C838.218 2172.78 877.025 2647.88 868.472 2720.39C856.444 2822.09 801.567 2912.55 787.578 3013.72C784.143 3039.23 776.417 3085.46 795.081 3106.67C838.447 3155.75 850.134 2991.38 852.397 2980.69C872.326 2885.5 965.633 2805.16 952.61 2703.76C945.672 2649.83 941.154 2590.27 929.777 2537.06C918.382 2484.01 919.895 2416.33 901.948 2374.88C892.428 2352.92 906.593 2322.63 931.837 2335.27C963.476 2351.08 968.055 2433.15 976.963 2462.77C998.531 2534.65 1059.67 2734.13 1051.63 2829.7C1042.82 2934.41 1067.85 2954.09 1098.8 2948.67C1151.77 2939.62 1130.75 2831.03 1127.87 2783.39C1119.17 2634.57 1031.85 2489.35 989.242 2340.44C971.646 2279.04 847.231 2189.82 838.688 2112.04C806.027 1812.53 750.067 1750.25 712.061 1542.88C678.78 1361.67 792.437 1337.14 767.389 999.106C761.754 922.47 748.769 779.433 808.871 763.049C870.354 746.301 855.754 1086.18 837.008 1237.4C825.426 1331.43 792.78 1340.36 792.464 1533.26C792.21 1641.37 840.986 1734.65 866.674 1837C882.654 1901.09 880.58 1966.03 884.672 2031.43C886.547 2062.51 884.83 2152 922.888 2165.78C1005 2195.46 904.982 1917.63 959.633 1920.17C966.647 1920.55 973.136 1926.08 977.316 1931.21C1024.19 1988.7 1005.94 2229.14 1072.6 2341.37C1085.51 2363 1113.66 2456.03 1153.7 2442.14C1204.18 2424.6 1131.66 2315.47 1115.59 2263.8C1090.17 2181.96 1106.81 2092.65 1078.61 2010.02C1039.3 1894.7 957.224 1803.57 912.27 1692.54C838.017 1509.68 903.449 1313.84 920.827 1126.55C937.662 946.245 894.027 619.251 892.687 606.018C887.037 547.682 881.229 484.293 864.919 428.399C839.571 340.858 781.197 280.851 790.934 186.805C794.772 149.08 842.717 136.664 850.334 182.271C859.579 238.286 890.373 300.355 910.41 354.278C940.755 435.612 940.962 527.647 958.901 612.084C977.896 700.994 1010.84 786.454 1018.53 877.571C1033.03 1050.31 973.319 1368.14 965.047 1403.23C958.835 1429.63 922.191 1568.62 980.073 1720.93C1009.46 1798.47 1065.11 1860.55 1098.95 1935.52C1137.19 2020.18 1128.94 2111.19 1154.35 2198.06C1176.76 2274.89 1230.29 2346.16 1236.69 2426.9C1246.04 2544.55 1183.24 2648.48 1185.18 2766.38C1185.94 2811.79 1199.84 2866.6 1203.6 2912.15C1207.93 2963.64 1200.63 3015.62 1199.59 3067.06C1197.64 3168.79 1239.53 3245.58 1294.1 3328.04C1312.44 3355.76 1364.15 3466.47 1397.24 3466.31C1453.18 3466.13 1393.99 3354.66 1383.98 3337.52C1359.54 3295.57 1327.29 3259.38 1301.92 3218.18C1258.41 3147.43 1262.26 3065.04 1264.49 2985.35C1265.26 2958.05 1251.65 2893.7 1273.57 2871.42C1294.91 2849.75 1309.83 2906.17 1312.5 2917.86C1317.83 2941.41 1316.72 3171.83 1370.47 3115.51C1416.5 3067.47 1396.12 2959.11 1385.72 2901.3C1371.2 2819.56 1308.52 2750.72 1300.6 2668.48C1290.54 2564.36 1352.95 2460.9 1324.64 2357.94C1311.49 2310.6 1283.03 2270.09 1258.95 2227.85C1243.41 2200.74 1231.26 2171.63 1222.4 2141.52C1216.02 2120.05 1193.3 1983.57 1218.29 1978.9C1256.45 1971.87 1278.22 2071.47 1283.05 2098.32C1291.89 2146.74 1316.93 2182.87 1337.88 2226.14C1375.91 2304.56 1394.6 2398.14 1383.25 2484.97C1382.49 2490.77 1331.82 2714.81 1397.84 2684.76C1430.07 2670.07 1447.28 2542.19 1449.07 2512.99C1453.59 2440.58 1465.31 2360 1448.73 2288.63C1432.89 2219.85 1391.29 2169.95 1360.92 2108.6C1347.82 2082.24 1344.73 2053.22 1334.4 2025.97C1331.64 2018.47 1329.14 2013.35 1326.61 2006.88C1321.66 1994.45 1316.64 1982.69 1308.48 1972.12C1283.55 1939.87 1256.28 1909.22 1224.46 1883.65C1105.59 1787.77 1017.77 1763.05 1011.83 1588.66C1008.85 1499.19 1003.35 1295.8 1067.58 1324.67C1115.45 1345.99 1079.85 1464.78 1096.84 1609.73C1105.23 1680.77 1093.12 1723.87 1120.38 1743.1C1147.77 1762.68 1172.67 1752.28 1180.88 1714.5C1182.51 1706.77 1179.78 1642.85 1167.03 1553.57C1155.96 1475.88 1167.18 1411.87 1158.43 1369.17C1145.58 1307.25 1099.11 1257.35 1090.14 1193.64C1076.7 1098.08 1100.91 1001.98 1095.05 906.177C1086.75 771.51 1034.36 647.802 1011.29 516.333C997.862 440.415 1006.01 360.312 980.94 286.567C946.193 184.133 861.997 98.9992 821.428 -0.669195C779.799 -103.132 832.135 -223.067 836.123 -328.276C839.209 -411.413 826.779 -490.588 833.904 -573.818C835.939 -597.118 826.746 -741.112 783.662 -731.896" stroke="#1C573F" stroke-width="0.31" stroke-linecap="round" stroke-linejoin="round"/>
</g>
</g>
<defs>
<clipPath id="clip0_1363_32368">
<rect width="2858.92" height="18634.7" fill="white" transform="translate(-116.069 -5233.43) rotate(5.80983)"/>
</clipPath>
</defs>
</svg>
